<svg width="32" height="32" viewBox="0 0 32 32" fill="none" xmlns="http://www.w3.org/2000/svg">
<path d="M21.3589 27.25L21.9377 26.671C22.2029 26.4059 22.335 26.0358 22.2977 25.6628L21.1066 13.7522L26.6259 7.12912C27.0397 6.63247 27.0066 5.90216 26.5495 5.44501L26.2889 5.18436C25.8316 4.72722 25.1014 4.69408 24.6047 5.10797L17.9816 10.6272L6.66257 10.0314C6.3087 10.0128 5.96356 10.1453 5.71298 10.3958L5.16775 10.9411C4.4807 11.6281 4.80585 12.802 5.74846 13.0376L13.6066 15.0022L9.80637 19.3334C9.58441 19.5864 9.26982 19.7392 8.93376 19.7572L5.86351 19.922C5.75178 19.928 5.63902 19.9447 5.54075 19.9982C5.46081 20.0417 5.38725 20.0965 5.32248 20.1613C4.82131 20.6625 5.02276 21.5159 5.69516 21.74L8.80777 22.7698C9.00644 22.8355 9.15905 22.9963 9.2143 23.1982L9.98207 26.0035C10.2116 26.692 11.0855 26.8984 11.5987 26.3852C11.6435 26.3403 11.6837 26.2914 11.7189 26.239C11.7862 26.1388 11.8128 26.0185 11.8267 25.8985L12.1972 22.7112C12.2318 22.4137 12.3721 22.1384 12.5925 21.9357L16.732 18.1272L19.273 26.7095C19.5349 27.6259 20.6849 27.9239 21.3589 27.25Z" stroke="black" stroke-width="1.25" stroke-linecap="round"/>
</svg>
